<svg xmlns="http://www.w3.org/2000/svg" viewBox="0 0 160 160" role="img" aria-labelledby="title desc">
  <title id="title">Pilates Explained mark</title>
  <desc id="desc">A circular archival mark with a Reformer, open book, and Pilates Explained initials.</desc>
  <rect width="160" height="160" rx="80" fill="#fffaf2"/>
  <circle cx="80" cy="80" r="68" fill="none" stroke="#8a6a35" stroke-width="7"/>
  <circle cx="80" cy="80" r="52" fill="none" stroke="#d4c4ae" stroke-width="3"/>
  <path d="M38 94h84" stroke="#1e2527" stroke-width="6" stroke-linecap="round"/>
  <rect x="49" y="72" width="48" height="16" rx="3" fill="#a77b46"/>
  <path d="M45 72V52M92 72V52M44 52h50" stroke="#1e2527" stroke-width="4" stroke-linecap="round"/>
  <path d="M64 55c10-8 20-8 30 0v24c-10-7-20-7-30 0z" fill="#f7f1e8" stroke="#8a6a35" stroke-width="3"/>
  <path d="M94 55c10-8 20-8 30 0v24c-10-7-20-7-30 0z" fill="#f7f1e8" stroke="#8a6a35" stroke-width="3"/>
  <path d="M38 111h84" stroke="#8a6a35" stroke-width="4" stroke-linecap="round"/>
  <text x="80" y="135" text-anchor="middle" font-family="Georgia, serif" font-size="20" font-weight="700" fill="#1e2527">PE</text>
</svg>
