<svg xmlns="http://www.w3.org/2000/svg" viewBox="0 0 2100 900" role="img" aria-labelledby="title desc">
  <title id="title">Pilates Explained archival banner</title>
  <desc id="desc">A warm archival-style banner with a Reformer, books, papers, and the Pilates Explained brand.</desc>
  <defs>
    <linearGradient id="bg" x1="0" x2="1" y1="0" y2="1">
      <stop offset="0" stop-color="#fffaf2"/>
      <stop offset=".55" stop-color="#eadcc8"/>
      <stop offset="1" stop-color="#f7f1e8"/>
    </linearGradient>
    <filter id="shadow" x="-20%" y="-20%" width="140%" height="140%">
      <feDropShadow dx="0" dy="20" stdDeviation="18" flood-color="#1e2527" flood-opacity=".18"/>
    </filter>
  </defs>
  <rect width="2100" height="900" fill="url(#bg)"/>
  <path d="M0 110c420-70 780-70 1080 0s640 70 1020-20v810H0z" fill="#fffaf2" opacity=".42"/>
  <g filter="url(#shadow)" transform="translate(110 240)">
    <path d="M90 340h990" stroke="#1e2527" stroke-width="28" stroke-linecap="round"/>
    <rect x="210" y="230" width="440" height="86" rx="10" fill="#9a6a37"/>
    <rect x="700" y="212" width="260" height="104" rx="10" fill="#1e2527"/>
    <path d="M220 222V82M630 222V82M975 212V54" stroke="#1e2527" stroke-width="18" stroke-linecap="round"/>
    <path d="M190 86h470M910 58h118" stroke="#8a6a35" stroke-width="18" stroke-linecap="round"/>
    <path d="M118 340c96-150 220-210 376-180" fill="none" stroke="#8a6a35" stroke-width="12" stroke-linecap="round"/>
    <path d="M750 180c75-90 142-132 204-126" fill="none" stroke="#8a6a35" stroke-width="12" stroke-linecap="round"/>
    <g transform="translate(1020 190)">
      <path d="M0 0h330v160H0z" fill="#fffaf2" stroke="#8a6a35" stroke-width="8"/>
      <path d="M35 36h260M35 72h240M35 108h220" stroke="#8a6a35" stroke-width="8" stroke-linecap="round"/>
      <path d="M50 150h300" stroke="#1e2527" stroke-width="18" stroke-linecap="round"/>
    </g>
  </g>
  <text x="1100" y="310" font-family="Georgia, serif" font-size="94" font-weight="700" fill="#8a6a35">Pilates Explained</text>
  <text x="1108" y="382" font-family="Inter, Arial, sans-serif" font-size="36" fill="#1e2527">The people, equipment, and ideas behind the method</text>
</svg>
