<svg xmlns="http://www.w3.org/2000/svg" viewBox="0 0 1280 720" role="img" aria-labelledby="title desc">
  <title id="title">Pilates apparatus poster</title>
  <desc id="desc">A stylized studio apparatus poster used before the video loads.</desc>
  <rect width="1280" height="720" fill="#1e2527"/>
  <rect x="90" y="74" width="1100" height="572" rx="8" fill="#f7f1e8"/>
  <path d="M188 492h910" stroke="#1e2527" stroke-width="18" stroke-linecap="round"/>
  <rect x="292" y="388" width="380" height="70" rx="8" fill="#1f6f6d"/>
  <rect x="700" y="374" width="222" height="84" rx="8" fill="#a14f38"/>
  <path d="M342 382V246M586 382V246M810 368V228M1010 492V210" stroke="#1e2527" stroke-width="13" stroke-linecap="round"/>
  <path d="M320 250h298M780 232h260" stroke="#c69a40" stroke-width="13" stroke-linecap="round"/>
  <path d="M206 492c70-92 165-140 286-144" fill="none" stroke="#a14f38" stroke-width="12" stroke-linecap="round"/>
  <path d="M948 374c44-74 92-108 144-104" fill="none" stroke="#1f6f6d" stroke-width="12" stroke-linecap="round"/>
  <circle cx="640" cy="164" r="58" fill="#1e2527"/>
  <path d="M620 135l58 29-58 29z" fill="#fffaf2"/>
  <text x="640" y="594" text-anchor="middle" font-family="Georgia, serif" font-size="54" font-weight="700" fill="#1e2527">The origins of Pilates</text>
</svg>
