<svg width="680" height="420" viewBox="0 0 680 420" xmlns="http://www.w3.org/2000/svg">
<defs>
<pattern id="grid" width="20" height="20" patternUnits="userSpaceOnUse">
<path d="M 20 0 L 0 0 0 20" fill="none" stroke="#D4C9BE" stroke-width="0.3" opacity="0.5"/>
</pattern>
</defs>
<rect width="680" height="420" fill="#FAF5F0" rx="8"/>
<rect width="680" height="420" fill="url(#grid)" rx="8"/>
<rect x="24" y="16" width="340" height="44" rx="4" fill="#1A7A6D" opacity="0.9"/>
<text x="36" y="34" font-family="Georgia, serif" font-size="13" font-weight="700" fill="#FAF5F0" letter-spacing="0.03em">THE CLASSICAL REFORMER</text>
<text x="36" y="50" font-family="Inter, sans-serif" font-size="10" fill="#E8F4F2" opacity="0.85">Universal Reformer — Original Contrology Apparatus</text>
<text x="656" y="32" font-family="Georgia, serif" font-size="9" fill="#1A7A6D" text-anchor="end" opacity="0.7">pilatesexplained.com</text>
<rect x="80" y="200" width="520" height="12" rx="3" fill="none" stroke="#2C2C2C" stroke-width="1.2"/>
<rect x="80" y="260" width="520" height="12" rx="3" fill="none" stroke="#2C2C2C" stroke-width="1.2"/>
<rect x="85" y="212" width="8" height="48" rx="2" fill="#D4C9BE" stroke="#2C2C2C" stroke-width="0.8"/>
<rect x="587" y="212" width="8" height="48" rx="2" fill="#D4C9BE" stroke="#2C2C2C" stroke-width="0.8"/>
<line x1="100" y1="272" x2="100" y2="310" stroke="#2C2C2C" stroke-width="1.5" stroke-linecap="round"/>
<line x1="130" y1="272" x2="130" y2="310" stroke="#2C2C2C" stroke-width="1.5" stroke-linecap="round"/>
<line x1="550" y1="272" x2="550" y2="310" stroke="#2C2C2C" stroke-width="1.5" stroke-linecap="round"/>
<line x1="580" y1="272" x2="580" y2="310" stroke="#2C2C2C" stroke-width="1.5" stroke-linecap="round"/>
<line x1="60" y1="310" x2="620" y2="310" stroke="#D4C9BE" stroke-width="0.8" stroke-dasharray="4 3"/>
<rect x="160" y="188" width="260" height="24" rx="4" fill="#F5EDD6" stroke="#8B6914" stroke-width="1" opacity="0.9"/>
<rect x="160" y="248" width="260" height="24" rx="4" fill="#F5EDD6" stroke="#8B6914" stroke-width="1" opacity="0.9"/>
<rect x="155" y="168" width="270" height="22" rx="3" fill="#F0E8DD" stroke="#8B6914" stroke-width="0.8"/>
<circle cx="180" cy="206" r="5" fill="#FAF5F0" stroke="#2C2C2C" stroke-width="0.8"/>
<circle cx="400" cy="206" r="5" fill="#FAF5F0" stroke="#2C2C2C" stroke-width="0.8"/>
<circle cx="180" cy="260" r="5" fill="#FAF5F0" stroke="#2C2C2C" stroke-width="0.8"/>
<circle cx="400" cy="260" r="5" fill="#FAF5F0" stroke="#2C2C2C" stroke-width="0.8"/>
<rect x="155" y="152" width="60" height="18" rx="6" fill="#E8F4F2" stroke="#1A7A6D" stroke-width="0.8"/>
<rect x="230" y="155" width="14" height="16" rx="2" fill="#1A7A6D" opacity="0.7"/>
<rect x="286" y="155" width="14" height="16" rx="2" fill="#1A7A6D" opacity="0.7"/>
<path d="M420 215 Q440 210 445 215 Q450 220 455 215 Q460 210 465 215 Q470 220 475 215 Q480 210 485 215 Q490 220 495 215 Q500 210 505 215 L520 215" fill="none" stroke="#C45B4D" stroke-width="1.2"/>
<path d="M420 225 Q440 220 445 225 Q450 230 455 225 Q460 220 465 225 Q470 230 475 225 Q480 220 485 225 Q490 230 495 225 Q500 220 505 225 L520 225" fill="none" stroke="#C45B4D" stroke-width="1.2"/>
<path d="M420 235 Q440 230 445 235 Q450 240 455 235 Q460 230 465 235 Q470 240 475 235 Q480 230 485 235 Q490 240 495 235 Q500 230 505 235 L520 235" fill="none" stroke="#1A7A6D" stroke-width="1.2"/>
<path d="M420 245 Q440 240 445 245 Q450 250 455 245 Q460 240 465 245 Q470 250 475 245 Q480 240 485 245 Q490 250 495 245 Q500 240 505 245 L520 245" fill="none" stroke="#1A7A6D" stroke-width="1.2"/>
<rect x="518" y="208" width="16" height="46" rx="3" fill="#D4C9BE" stroke="#2C2C2C" stroke-width="0.8"/>
<rect x="540" y="170" width="8" height="80" rx="3" fill="#2C2C2C" stroke="#2C2C2C" stroke-width="0.5"/>
<rect x="530" y="168" width="28" height="6" rx="3" fill="#6B6155"/>
<circle cx="544" cy="250" r="4" fill="#6B6155" stroke="#2C2C2C" stroke-width="0.5"/>
<line x1="100" y1="200" x2="100" y2="155" stroke="#8B6914" stroke-width="1" stroke-dasharray="3 2"/>
<line x1="130" y1="200" x2="130" y2="155" stroke="#8B6914" stroke-width="1" stroke-dasharray="3 2"/>
<circle cx="100" cy="152" r="4" fill="#FAF5F0" stroke="#8B6914" stroke-width="0.8"/>
<circle cx="130" cy="152" r="4" fill="#FAF5F0" stroke="#8B6914" stroke-width="0.8"/>
<rect x="90" y="140" width="20" height="6" rx="2" fill="#8B6914" opacity="0.6"/>
<rect x="120" y="140" width="20" height="6" rx="2" fill="#8B6914" opacity="0.6"/>
<line x1="185" y1="148" x2="185" y2="108" stroke="#6B6155" stroke-width="0.5" stroke-dasharray="2 2"/>
<line x1="185" y1="108" x2="220" y2="108" stroke="#6B6155" stroke-width="0.5"/>
<circle cx="185" cy="148" r="2" fill="#1A7A6D"/>
<text x="224" y="112" font-family="Inter, sans-serif" font-size="10" fill="#2C2C2C" font-weight="500">Headrest</text>
<line x1="258" y1="155" x2="258" y2="100" stroke="#6B6155" stroke-width="0.5" stroke-dasharray="2 2"/>
<line x1="258" y1="100" x2="310" y2="100" stroke="#6B6155" stroke-width="0.5"/>
<circle cx="258" cy="155" r="2" fill="#1A7A6D"/>
<text x="314" y="104" font-family="Inter, sans-serif" font-size="10" fill="#2C2C2C" font-weight="500">Shoulder blocks</text>
<line x1="290" y1="168" x2="290" y2="85" stroke="#6B6155" stroke-width="0.5" stroke-dasharray="2 2"/>
<line x1="290" y1="85" x2="410" y2="85" stroke="#6B6155" stroke-width="0.5"/>
<circle cx="290" cy="168" r="2" fill="#8B6914"/>
<text x="414" y="89" font-family="Inter, sans-serif" font-size="10" fill="#8B6914" font-weight="500">Carriage (sliding platform)</text>
<line x1="470" y1="215" x2="470" y2="132" stroke="#6B6155" stroke-width="0.5" stroke-dasharray="2 2"/>
<line x1="470" y1="132" x2="510" y2="132" stroke="#6B6155" stroke-width="0.5"/>
<circle cx="470" cy="215" r="2" fill="#C45B4D"/>
<text x="514" y="129" font-family="Inter, sans-serif" font-size="10" fill="#C45B4D" font-weight="500">Springs</text>
<text x="514" y="142" font-family="Inter, sans-serif" font-size="9" fill="#6B6155">(variable resistance)</text>
<line x1="558" y1="168" x2="558" y2="108" stroke="#6B6155" stroke-width="0.5" stroke-dasharray="2 2"/>
<line x1="558" y1="108" x2="610" y2="108" stroke="#6B6155" stroke-width="0.5"/>
<circle cx="558" cy="168" r="2" fill="#2C2C2C"/>
<text x="565" y="112" font-family="Inter, sans-serif" font-size="10" fill="#2C2C2C" font-weight="500">Footbar</text>
<line x1="340" y1="272" x2="340" y2="296" stroke="#6B6155" stroke-width="0.5" stroke-dasharray="2 2"/>
<line x1="340" y1="296" x2="400" y2="296" stroke="#6B6155" stroke-width="0.5"/>
<circle cx="340" cy="272" r="2" fill="#2C2C2C"/>
<text x="404" y="300" font-family="Inter, sans-serif" font-size="10" fill="#2C2C2C" font-weight="500">Frame and rails</text>
<line x1="80" y1="155" x2="50" y2="130" stroke="#6B6155" stroke-width="0.5" stroke-dasharray="2 2"/>
<circle cx="80" cy="155" r="2" fill="#8B6914"/>
<text x="28" y="122" font-family="Inter, sans-serif" font-size="10" fill="#8B6914" font-weight="500">Ropes</text>
<text x="28" y="134" font-family="Inter, sans-serif" font-size="9" fill="#6B6155">and handles</text>
<rect x="24" y="340" width="632" height="60" rx="6" fill="#F0E8DD" stroke="#D4C9BE" stroke-width="0.5"/>
<text x="44" y="360" font-family="Georgia, serif" font-size="11" fill="#1A7A6D" font-weight="700">Design origin</text>
<text x="44" y="376" font-family="Inter, sans-serif" font-size="9.5" fill="#6B6155">Developed by Joseph Pilates in his New York studio, 1920s–1960s.</text>
<text x="44" y="390" font-family="Inter, sans-serif" font-size="9.5" fill="#6B6155">The carriage slides on rails against spring resistance, creating controlled, full-body movement.</text>
<text x="490" y="360" font-family="Georgia, serif" font-size="11" fill="#8B6914" font-weight="700">Classical dimensions</text>
<text x="490" y="376" font-family="Inter, sans-serif" font-size="9.5" fill="#6B6155">Heritage vendors like Gratz</text>
<text x="490" y="390" font-family="Inter, sans-serif" font-size="9.5" fill="#6B6155">preserve original proportions.</text>
</svg>
