<svg width="680" height="460" viewBox="0 0 680 460" xmlns="http://www.w3.org/2000/svg"><defs><pattern id="grid4" width="20" height="20" patternUnits="userSpaceOnUse"><path d="M 20 0 L 0 0 0 20" fill="none" stroke="#D4C9BE" stroke-width="0.3" opacity="0.35"/></pattern></defs><rect width="680" height="460" fill="#FAF5F0" rx="8"/><rect width="680" height="460" fill="url(#grid4)" rx="8"/><text x="340" y="36" font-family="Georgia, serif" font-size="15" font-weight="700" fill="#2C2C2C" text-anchor="middle">Three methods. One question.</text><text x="340" y="54" font-family="Inter, sans-serif" font-size="10.5" fill="#6B6155" text-anchor="middle">Which path fits the way you want to move?</text><circle cx="340" cy="100" r="22" fill="#2C2C2C"/><text x="340" y="97" font-family="Georgia, serif" font-size="8" fill="#FAF5F0" text-anchor="middle" font-weight="700">YOUR</text><text x="340" y="108" font-family="Georgia, serif" font-size="8" fill="#FAF5F0" text-anchor="middle" font-weight="700">START</text><path d="M325 118 Q260 160 130 190" fill="none" stroke="#8B6914" stroke-width="2.5" stroke-linecap="round" stroke-dasharray="6 4" opacity="0.7"/><path d="M340 122 Q340 165 340 190" fill="none" stroke="#1A7A6D" stroke-width="2.5" stroke-linecap="round" stroke-dasharray="6 4" opacity="0.7"/><path d="M355 118 Q420 160 550 190" fill="none" stroke="#C45B4D" stroke-width="2.5" stroke-linecap="round" stroke-dasharray="6 4" opacity="0.7"/><circle cx="130" cy="190" r="10" fill="#8B6914"/><text x="130" y="194" font-family="Georgia, serif" font-size="9" fill="#FAF5F0" text-anchor="middle" font-weight="700">1</text><rect x="40" y="210" width="180" height="228" rx="8" fill="#FFFFFF" stroke="#8B6914" stroke-width="1"/><rect x="40" y="210" width="180" height="34" rx="8" fill="#F5EDD6"/><rect x="40" y="232" width="180" height="12" fill="#F5EDD6"/><rect x="55" y="218" width="88" height="16" rx="8" fill="#8B6914"/><text x="99" y="230" font-family="Inter, sans-serif" font-size="7.5" fill="#FAF5F0" text-anchor="middle" font-weight="500" letter-spacing="0.06em">HERITAGE</text><text x="130" y="260" font-family="Georgia, serif" font-size="13" fill="#2C2C2C" text-anchor="middle" font-weight="700">Classical</text><text x="130" y="274" font-family="Georgia, serif" font-size="13" fill="#2C2C2C" text-anchor="middle" font-weight="700">Pilates</text><circle cx="62" cy="298" r="3" fill="#F5EDD6" stroke="#8B6914" stroke-width="0.5"/><text x="72" y="302" font-family="Inter, sans-serif" font-size="9" fill="#6B6155">Original Contrology method</text><circle cx="62" cy="318" r="3" fill="#F5EDD6" stroke="#8B6914" stroke-width="0.5"/><text x="72" y="322" font-family="Inter, sans-serif" font-size="9" fill="#6B6155">Lineage-based teaching</text><circle cx="62" cy="338" r="3" fill="#F5EDD6" stroke="#8B6914" stroke-width="0.5"/><text x="72" y="342" font-family="Inter, sans-serif" font-size="9" fill="#6B6155">Full apparatus system</text><circle cx="62" cy="358" r="3" fill="#F5EDD6" stroke="#8B6914" stroke-width="0.5"/><text x="72" y="362" font-family="Inter, sans-serif" font-size="9" fill="#6B6155">Private / semi-private</text><circle cx="62" cy="378" r="3" fill="#F5EDD6" stroke="#8B6914" stroke-width="0.5"/><text x="72" y="382" font-family="Inter, sans-serif" font-size="9" fill="#6B6155">Precision over intensity</text><rect x="52" y="396" width="156" height="30" rx="4" fill="#F5EDD6"/><text x="130" y="410" font-family="Inter, sans-serif" font-size="8" fill="#8B6914" text-anchor="middle" font-weight="500" font-style="italic">For depth, discipline,</text><text x="130" y="422" font-family="Inter, sans-serif" font-size="8" fill="#8B6914" text-anchor="middle" font-weight="500" font-style="italic">and historical connection</text><circle cx="340" cy="190" r="10" fill="#1A7A6D"/><text x="340" y="194" font-family="Georgia, serif" font-size="9" fill="#FAF5F0" text-anchor="middle" font-weight="700">2</text><rect x="250" y="210" width="180" height="228" rx="8" fill="#FFFFFF" stroke="#1A7A6D" stroke-width="1"/><rect x="250" y="210" width="180" height="34" rx="8" fill="#E8F4F2"/><rect x="250" y="232" width="180" height="12" fill="#E8F4F2"/><rect x="265" y="218" width="88" height="16" rx="8" fill="#1A7A6D"/><text x="309" y="230" font-family="Inter, sans-serif" font-size="7.5" fill="#FAF5F0" text-anchor="middle" font-weight="500" letter-spacing="0.06em">ADAPTED</text><text x="340" y="260" font-family="Georgia, serif" font-size="13" fill="#2C2C2C" text-anchor="middle" font-weight="700">Contemporary</text><text x="340" y="274" font-family="Georgia, serif" font-size="13" fill="#2C2C2C" text-anchor="middle" font-weight="700">Pilates</text><circle cx="272" cy="298" r="3" fill="#E8F4F2" stroke="#1A7A6D" stroke-width="0.5"/><text x="282" y="302" font-family="Inter, sans-serif" font-size="9" fill="#6B6155">Evidence-informed movement</text><circle cx="272" cy="318" r="3" fill="#E8F4F2" stroke="#1A7A6D" stroke-width="0.5"/><text x="282" y="322" font-family="Inter, sans-serif" font-size="9" fill="#6B6155">Curriculum-based training</text><circle cx="272" cy="338" r="3" fill="#E8F4F2" stroke="#1A7A6D" stroke-width="0.5"/><text x="282" y="342" font-family="Inter, sans-serif" font-size="9" fill="#6B6155">Modernized equipment</text><circle cx="272" cy="358" r="3" fill="#E8F4F2" stroke="#1A7A6D" stroke-width="0.5"/><text x="282" y="362" font-family="Inter, sans-serif" font-size="9" fill="#6B6155">Private, group, franchise</text><circle cx="272" cy="378" r="3" fill="#E8F4F2" stroke="#1A7A6D" stroke-width="0.5"/><text x="282" y="382" font-family="Inter, sans-serif" font-size="9" fill="#6B6155">Scalable and accessible</text><rect x="262" y="396" width="156" height="30" rx="4" fill="#E8F4F2"/><text x="340" y="410" font-family="Inter, sans-serif" font-size="8" fill="#1A7A6D" text-anchor="middle" font-weight="500" font-style="italic">For adaptability, accessibility,</text><text x="340" y="422" font-family="Inter, sans-serif" font-size="8" fill="#1A7A6D" text-anchor="middle" font-weight="500" font-style="italic">and modern science</text><circle cx="550" cy="190" r="10" fill="#C45B4D"/><text x="550" y="194" font-family="Georgia, serif" font-size="9" fill="#FAF5F0" text-anchor="middle" font-weight="700">3</text><rect x="460" y="210" width="180" height="228" rx="8" fill="#FFFFFF" stroke="#C45B4D" stroke-width="1"/><rect x="460" y="210" width="180" height="34" rx="8" fill="#FBEAE8"/><rect x="460" y="232" width="180" height="12" fill="#FBEAE8"/><rect x="475" y="218" width="108" height="16" rx="8" fill="#C45B4D"/><text x="529" y="230" font-family="Inter, sans-serif" font-size="7.5" fill="#FAF5F0" text-anchor="middle" font-weight="500" letter-spacing="0.06em">SEPARATE SYSTEM</text><text x="550" y="264" font-family="Georgia, serif" font-size="13" fill="#2C2C2C" text-anchor="middle" font-weight="700">Lagree</text><circle cx="482" cy="298" r="3" fill="#FBEAE8" stroke="#C45B4D" stroke-width="0.5"/><text x="492" y="302" font-family="Inter, sans-serif" font-size="9" fill="#6B6155">Proprietary fitness system</text><circle cx="482" cy="318" r="3" fill="#FBEAE8" stroke="#C45B4D" stroke-width="0.5"/><text x="492" y="322" font-family="Inter, sans-serif" font-size="9" fill="#6B6155">Centralized certification</text><circle cx="482" cy="338" r="3" fill="#FBEAE8" stroke="#C45B4D" stroke-width="0.5"/><text x="492" y="342" font-family="Inter, sans-serif" font-size="9" fill="#6B6155">Megaformer machines</text><circle cx="482" cy="358" r="3" fill="#FBEAE8" stroke="#C45B4D" stroke-width="0.5"/><text x="492" y="362" font-family="Inter, sans-serif" font-size="9" fill="#6B6155">Group class format</text><circle cx="482" cy="378" r="3" fill="#FBEAE8" stroke="#C45B4D" stroke-width="0.5"/><text x="492" y="382" font-family="Inter, sans-serif" font-size="9" fill="#6B6155">High-intensity, low-impact</text><rect x="472" y="396" width="156" height="30" rx="4" fill="#FBEAE8"/><text x="550" y="410" font-family="Inter, sans-serif" font-size="8" fill="#C45B4D" text-anchor="middle" font-weight="500" font-style="italic">For muscular endurance</text><text x="550" y="422" font-family="Inter, sans-serif" font-size="8" fill="#C45B4D" text-anchor="middle" font-weight="500" font-style="italic">and strength challenge</text><text x="340" y="454" font-family="Inter, sans-serif" font-size="9" fill="#7A7067" text-anchor="middle">Not a ranking — an educational comparison. Choose the path that fits your goals.</text><text x="656" y="454" font-family="Georgia, serif" font-size="8" fill="#1A7A6D" text-anchor="end" opacity="0.6">pilatesexplained.com</text></svg>
