<svg width="680" height="520" viewBox="0 0 680 520" xmlns="http://www.w3.org/2000/svg"><defs><pattern id="grid3" width="20" height="20" patternUnits="userSpaceOnUse"><path d="M 20 0 L 0 0 0 20" fill="none" stroke="#D4C9BE" stroke-width="0.3" opacity="0.4"/></pattern><marker id="arr3" viewBox="0 0 10 10" refX="8" refY="5" markerWidth="5" markerHeight="5" orient="auto-start-reverse"><path d="M2 1.5L8 5L2 8.5" fill="none" stroke="context-stroke" stroke-width="1.5" stroke-linecap="round" stroke-linejoin="round"/></marker></defs><rect width="680" height="520" fill="#FAF5F0" rx="8"/><rect width="680" height="520" fill="url(#grid3)" rx="8"/><rect x="24" y="16" width="380" height="44" rx="4" fill="#2C2C2C" opacity="0.92"/><text x="36" y="34" font-family="Georgia, serif" font-size="13" font-weight="700" fill="#FAF5F0" letter-spacing="0.03em">OPEN METHOD vs. CLOSED SYSTEM</text><text x="36" y="50" font-family="Inter, sans-serif" font-size="10" fill="#D4C9BE">How Pilates and Lagree are governed — and why it matters</text><text x="656" y="32" font-family="Georgia, serif" font-size="9" fill="#1A7A6D" text-anchor="end" opacity="0.7">pilatesexplained.com</text><rect x="24" y="76" width="304" height="420" rx="6" fill="none" stroke="#1A7A6D" stroke-width="0.8"/><rect x="24" y="76" width="304" height="28" rx="6" fill="#1A7A6D"/><rect x="24" y="92" width="304" height="12" fill="#1A7A6D"/><text x="176" y="96" font-family="Georgia, serif" font-size="11" font-weight="700" fill="#FAF5F0" text-anchor="middle">PILATES — Open Category</text><rect x="120" y="116" width="112" height="20" rx="10" fill="#E8F4F2" stroke="#1A7A6D" stroke-width="0.5"/><text x="176" y="130" font-family="Inter, sans-serif" font-size="8.5" fill="#1A7A6D" text-anchor="middle" font-weight="500">Generic term since 2000</text><rect x="116" y="148" width="120" height="32" rx="4" fill="#F5EDD6" stroke="#8B6914" stroke-width="0.7"/><text x="176" y="162" font-family="Georgia, serif" font-size="9.5" fill="#8B6914" text-anchor="middle" font-weight="700">Joseph &amp; Clara</text><text x="176" y="174" font-family="Inter, sans-serif" font-size="8" fill="#6B6155" text-anchor="middle">Contrology, 1920s</text><line x1="176" y1="180" x2="176" y2="196" stroke="#8B6914" stroke-width="0.7" marker-end="url(#arr3)"/><rect x="106" y="198" width="140" height="26" rx="4" fill="#F5EDD6" stroke="#8B6914" stroke-width="0.7"/><text x="176" y="215" font-family="Inter, sans-serif" font-size="9" fill="#8B6914" text-anchor="middle" font-weight="500">First-generation Elders</text><line x1="140" y1="224" x2="80" y2="248" stroke="#1A7A6D" stroke-width="0.7" marker-end="url(#arr3)"/><line x1="176" y1="224" x2="176" y2="248" stroke="#1A7A6D" stroke-width="0.7" marker-end="url(#arr3)"/><line x1="212" y1="224" x2="272" y2="248" stroke="#1A7A6D" stroke-width="0.7" marker-end="url(#arr3)"/><rect x="36" y="250" width="90" height="38" rx="4" fill="#E8F4F2" stroke="#1A7A6D" stroke-width="0.6"/><text x="81" y="265" font-family="Inter, sans-serif" font-size="8.5" fill="#1A7A6D" text-anchor="middle" font-weight="500">Classical</text><text x="81" y="278" font-family="Inter, sans-serif" font-size="7.5" fill="#6B6155" text-anchor="middle">Lineage schools</text><rect x="131" y="250" width="90" height="38" rx="4" fill="#E8F4F2" stroke="#1A7A6D" stroke-width="0.6"/><text x="176" y="265" font-family="Inter, sans-serif" font-size="8.5" fill="#1A7A6D" text-anchor="middle" font-weight="500">Contemporary</text><text x="176" y="278" font-family="Inter, sans-serif" font-size="7.5" fill="#6B6155" text-anchor="middle">STOTT, BASI, BB</text><rect x="226" y="250" width="90" height="38" rx="4" fill="#E8F4F2" stroke="#1A7A6D" stroke-width="0.6"/><text x="271" y="265" font-family="Inter, sans-serif" font-size="8.5" fill="#1A7A6D" text-anchor="middle" font-weight="500">Franchise</text><text x="271" y="278" font-family="Inter, sans-serif" font-size="7.5" fill="#6B6155" text-anchor="middle">Club Pilates</text><line x1="81" y1="288" x2="60" y2="306" stroke="#D4C9BE" stroke-width="0.5" marker-end="url(#arr3)"/><line x1="81" y1="288" x2="102" y2="306" stroke="#D4C9BE" stroke-width="0.5" marker-end="url(#arr3)"/><line x1="176" y1="288" x2="155" y2="306" stroke="#D4C9BE" stroke-width="0.5" marker-end="url(#arr3)"/><line x1="176" y1="288" x2="197" y2="306" stroke="#D4C9BE" stroke-width="0.5" marker-end="url(#arr3)"/><line x1="271" y1="288" x2="250" y2="306" stroke="#D4C9BE" stroke-width="0.5" marker-end="url(#arr3)"/><line x1="271" y1="288" x2="292" y2="306" stroke="#D4C9BE" stroke-width="0.5" marker-end="url(#arr3)"/><circle cx="60" cy="312" r="5" fill="#E8F4F2" stroke="#1A7A6D" stroke-width="0.4"/><circle cx="102" cy="312" r="5" fill="#E8F4F2" stroke="#1A7A6D" stroke-width="0.4"/><circle cx="155" cy="312" r="5" fill="#E8F4F2" stroke="#1A7A6D" stroke-width="0.4"/><circle cx="197" cy="312" r="5" fill="#E8F4F2" stroke="#1A7A6D" stroke-width="0.4"/><circle cx="250" cy="312" r="5" fill="#E8F4F2" stroke="#1A7A6D" stroke-width="0.4"/><circle cx="292" cy="312" r="5" fill="#E8F4F2" stroke="#1A7A6D" stroke-width="0.4"/><text x="176" y="335" font-family="Inter, sans-serif" font-size="7.5" fill="#6B6155" text-anchor="middle">Independent studios and educators worldwide</text><rect x="56" y="348" width="240" height="24" rx="4" fill="#F0E8DD" stroke="#D4C9BE" stroke-width="0.5" stroke-dasharray="3 2"/><text x="176" y="364" font-family="Inter, sans-serif" font-size="8" fill="#6B6155" text-anchor="middle">PMA / NPCP — voluntary quality layer across all branches</text><rect x="44" y="384" width="264" height="100" rx="4" fill="#F0E8DD"/><text x="56" y="401" font-family="Inter, sans-serif" font-size="9" font-weight="500" fill="#1A7A6D">What this means</text><text x="56" y="416" font-family="Inter, sans-serif" font-size="8.5" fill="#2C2C2C">Anyone can teach, make equipment, or open a studio</text><text x="56" y="430" font-family="Inter, sans-serif" font-size="8.5" fill="#2C2C2C">No single authority controls the method or the name</text><text x="56" y="444" font-family="Inter, sans-serif" font-size="8.5" fill="#2C2C2C">Quality varies — voluntary certification exists</text><text x="56" y="458" font-family="Inter, sans-serif" font-size="8.5" fill="#2C2C2C">Extraordinary variety and accessibility</text><text x="56" y="474" font-family="Inter, sans-serif" font-size="8.5" fill="#1A7A6D" font-weight="500">Result: an open ecosystem with many voices</text><rect x="352" y="76" width="304" height="420" rx="6" fill="none" stroke="#C45B4D" stroke-width="0.8"/><rect x="352" y="76" width="304" height="28" rx="6" fill="#C45B4D"/><rect x="352" y="92" width="304" height="12" fill="#C45B4D"/><text x="504" y="96" font-family="Georgia, serif" font-size="11" font-weight="700" fill="#FAF5F0" text-anchor="middle">LAGREE — Proprietary IP</text><rect x="440" y="116" width="128" height="20" rx="10" fill="#FBEAE8" stroke="#C45B4D" stroke-width="0.5"/><text x="504" y="130" font-family="Inter, sans-serif" font-size="8.5" fill="#C45B4D" text-anchor="middle" font-weight="500">Trademarked system</text><rect x="444" y="148" width="120" height="32" rx="4" fill="#FBEAE8" stroke="#C45B4D" stroke-width="0.7"/><text x="504" y="162" font-family="Georgia, serif" font-size="9.5" fill="#C45B4D" text-anchor="middle" font-weight="700">Sebastien Lagree</text><text x="504" y="174" font-family="Inter, sans-serif" font-size="8" fill="#6B6155" text-anchor="middle">Founder, 1998</text><line x1="504" y1="180" x2="504" y2="196" stroke="#C45B4D" stroke-width="0.7" marker-end="url(#arr3)"/><rect x="434" y="198" width="140" height="26" rx="4" fill="#FBEAE8" stroke="#C45B4D" stroke-width="0.7"/><text x="504" y="215" font-family="Inter, sans-serif" font-size="9" fill="#C45B4D" text-anchor="middle" font-weight="500">Lagree Fitness (company)</text><line x1="470" y1="224" x2="408" y2="248" stroke="#C45B4D" stroke-width="0.7" marker-end="url(#arr3)"/><line x1="504" y1="224" x2="504" y2="248" stroke="#C45B4D" stroke-width="0.7" marker-end="url(#arr3)"/><line x1="538" y1="224" x2="600" y2="248" stroke="#C45B4D" stroke-width="0.7" marker-end="url(#arr3)"/><rect x="364" y="250" width="90" height="38" rx="4" fill="#FBEAE8" stroke="#C45B4D" stroke-width="0.6"/><text x="409" y="265" font-family="Inter, sans-serif" font-size="8.5" fill="#C45B4D" text-anchor="middle" font-weight="500">Equipment</text><text x="409" y="278" font-family="Inter, sans-serif" font-size="7.5" fill="#6B6155" text-anchor="middle">Proprietary machines</text><rect x="459" y="250" width="90" height="38" rx="4" fill="#FBEAE8" stroke="#C45B4D" stroke-width="0.6"/><text x="504" y="265" font-family="Inter, sans-serif" font-size="8.5" fill="#C45B4D" text-anchor="middle" font-weight="500">Certification</text><text x="504" y="278" font-family="Inter, sans-serif" font-size="7.5" fill="#6B6155" text-anchor="middle">Lagree Academy</text><rect x="554" y="250" width="90" height="38" rx="4" fill="#FBEAE8" stroke="#C45B4D" stroke-width="0.6"/><text x="599" y="265" font-family="Inter, sans-serif" font-size="8.5" fill="#C45B4D" text-anchor="middle" font-weight="500">Licensing</text><text x="599" y="278" font-family="Inter, sans-serif" font-size="7.5" fill="#6B6155" text-anchor="middle">Studio licenses</text><line x1="409" y1="288" x2="504" y2="310" stroke="#D4C9BE" stroke-width="0.5" marker-end="url(#arr3)"/><line x1="504" y1="288" x2="504" y2="310" stroke="#D4C9BE" stroke-width="0.5" marker-end="url(#arr3)"/><line x1="599" y1="288" x2="504" y2="310" stroke="#D4C9BE" stroke-width="0.5" marker-end="url(#arr3)"/><rect x="454" y="312" width="100" height="26" rx="4" fill="#FBEAE8" stroke="#C45B4D" stroke-width="0.6"/><text x="504" y="329" font-family="Inter, sans-serif" font-size="8.5" fill="#C45B4D" text-anchor="middle" font-weight="500">Licensed studios</text><text x="504" y="356" font-family="Inter, sans-serif" font-size="7.5" fill="#6B6155" text-anchor="middle">All paths lead through the company</text><rect x="488" y="362" width="32" height="20" rx="3" fill="none" stroke="#C45B4D" stroke-width="0.6"/><path d="M498 362 V356 A6 6 0 0 1 510 356 V362" fill="none" stroke="#C45B4D" stroke-width="0.8"/><circle cx="504" cy="372" r="2" fill="#C45B4D"/><rect x="372" y="384" width="264" height="100" rx="4" fill="#F0E8DD"/><text x="384" y="401" font-family="Inter, sans-serif" font-size="9" font-weight="500" fill="#C45B4D">What this means</text><text x="384" y="416" font-family="Inter, sans-serif" font-size="8.5" fill="#2C2C2C">Only licensed studios can use the Lagree name</text><text x="384" y="430" font-family="Inter, sans-serif" font-size="8.5" fill="#2C2C2C">Equipment can only be bought from one source</text><text x="384" y="444" font-family="Inter, sans-serif" font-size="8.5" fill="#2C2C2C">Certification is centralized through the Academy</text><text x="384" y="458" font-family="Inter, sans-serif" font-size="8.5" fill="#2C2C2C">Standardization, but authority concentrated</text><text x="384" y="474" font-family="Inter, sans-serif" font-size="8.5" fill="#C45B4D" font-weight="500">Result: a closed platform with one voice</text></svg>
